<?xml version="1.0" encoding="utf-8"?>
<!-- Generator: Adobe Illustrator 28.2.0, SVG Export Plug-In . SVG Version: 6.00 Build 0)  -->
<svg version="1.1" id="Layer_1" xmlns="http://www.w3.org/2000/svg" xmlns:xlink="http://www.w3.org/1999/xlink" x="0px" y="0px"
	 viewBox="0 0 394.6 95.3" style="enable-background:new 0 0 394.6 95.3;" xml:space="preserve">
<style type="text/css">
	.st0{fill:url(#SVGID_1_);}
	.st1{fill:url(#SVGID_00000054954646705681809850000013885337131056489101_);}
	.st2{fill:#CE1337;}
	.st3{fill:none;stroke:#CE1337;stroke-width:1.15;}
	.st4{fill:#CE1337;stroke:#CE1337;stroke-width:0.16;}
	.st5{fill:#231F20;}
	.st6{fill:none;}
</style>
<linearGradient id="SVGID_1_" gradientUnits="userSpaceOnUse" x1="-703.8991" y1="-65.9558" x2="-703.8991" y2="20.2342" gradientTransform="matrix(0.7704 -0.3823 -0.3992 -0.7955 569.0669 -246.3407)">
	<stop  offset="5.000000e-02" style="stop-color:#989A9D"/>
	<stop  offset="9.000000e-02" style="stop-color:#86878A"/>
	<stop  offset="0.17" style="stop-color:#68686A"/>
	<stop  offset="0.26" style="stop-color:#504F51"/>
	<stop  offset="0.35" style="stop-color:#3F3D3F"/>
	<stop  offset="0.44" style="stop-color:#353334"/>
	<stop  offset="0.54" style="stop-color:#323031"/>
	<stop  offset="0.61" style="stop-color:#575657"/>
	<stop  offset="0.7" style="stop-color:#818283"/>
	<stop  offset="0.78" style="stop-color:#A1A2A4"/>
	<stop  offset="0.85" style="stop-color:#B4B5B7"/>
	<stop  offset="0.89" style="stop-color:#BBBDBF"/>
</linearGradient>
<path class="st0" d="M64.1,37.1c-2.6-9.4-8.6-17.2-16.9-22.2c-6.3-3.8-13.5-5.5-20.5-5.1c4.5,0.7,8.8,2.3,12.9,4.7
	c8.3,4.9,14.3,12.8,16.9,22.2c5.3,19.3-5.7,39-24.5,43.8c-2.1,0.6-4.3,0.9-6.5,1c4.7,0.8,9.5,0.5,14.2-0.7
	C58.5,76.1,69.4,56.4,64.1,37.1L64.1,37.1z"/>
<linearGradient id="SVGID_00000088128395908180433820000008762217802782880643_" gradientUnits="userSpaceOnUse" x1="-687.3224" y1="-77.6558" x2="-687.3224" y2="22.9742" gradientTransform="matrix(0.7704 -0.3823 -0.3992 -0.7955 569.0669 -246.3407)">
	<stop  offset="5.000000e-02" style="stop-color:#989A9D"/>
	<stop  offset="9.000000e-02" style="stop-color:#86878A"/>
	<stop  offset="0.17" style="stop-color:#68686A"/>
	<stop  offset="0.26" style="stop-color:#504F51"/>
	<stop  offset="0.35" style="stop-color:#3F3D3F"/>
	<stop  offset="0.44" style="stop-color:#353334"/>
	<stop  offset="0.54" style="stop-color:#323031"/>
	<stop  offset="0.61" style="stop-color:#575657"/>
	<stop  offset="0.7" style="stop-color:#818283"/>
	<stop  offset="0.78" style="stop-color:#A1A2A4"/>
	<stop  offset="0.85" style="stop-color:#B4B5B7"/>
	<stop  offset="0.89" style="stop-color:#BBBDBF"/>
</linearGradient>
<path style="fill:url(#SVGID_00000088128395908180433820000008762217802782880643_);" d="M83.1,34c-3-10.9-10-20-19.6-25.8
	c-8-4.8-17.2-6.7-26.1-5.7C42.7,3.4,48,5.3,52.9,8.2c9.6,5.8,16.6,14.9,19.6,25.8c6.2,22.4-6.6,45.3-28.5,50.9
	c-1.7,0.4-3.4,0.8-5.2,1c5.2,0.8,10.6,0.5,15.8-0.9C76.5,79.3,89.3,56.5,83.1,34L83.1,34z"/>
<g>
	<path class="st2" d="M31.9,75.3l9.9-31.7l0.2-0.8H26.1L26,43.3L16.1,75l-0.2,1.4h15.9L31.9,75.3L31.9,75.3z"/>
	<path class="st2" d="M40,22.6c-4.9,0-9.2,3.5-10.5,8.4v0c-0.8,2.5-0.5,4.8,0.9,6.4c1.1,1.5,2.9,2.2,5.2,2.2c4.8,0,9.3-3.5,10.7-8.3
		c0.7-2.7,0.3-5-1-6.6C44,23.3,42.2,22.6,40,22.6L40,22.6z"/>
</g>
<path class="st3" d="M388.8,53.5c2.9,0,5.2-2.3,5.2-5.2s-2.3-5.2-5.2-5.2s-5.2,2.3-5.2,5.2S386,53.5,388.8,53.5z"/>
<path class="st4" d="M387.1,51.6h-0.9v-6.5h3.2c1.1,0,2.3,0.4,2.3,1.7c0,1-0.5,1.3-1,1.5c0.4,0.2,0.8,0.3,0.8,1.2l0.1,1.2
	c0,0.4,0.1,0.5,0.4,0.7v0.2h-1.1c-0.1-0.4-0.2-1.4-0.2-1.6c0-0.5-0.1-1.2-1.2-1.2h-2.3V51.6L387.1,51.6z M387.1,48.1h2.2
	c0.7,0,1.4-0.2,1.4-1.1s-0.8-1.1-1.2-1.1h-2.3V48.1z"/>
<g>
	<path class="st2" d="M123.2,7.5c-0.8,3.2-3.6,5.7-6.9,5.7s-4.6-2.6-3.7-5.7c0.8-3.3,3.6-5.8,6.8-5.8S124,4.2,123.2,7.5z
		 M100.4,54.5l9.7-36.7h10.1l-9.7,36.7H100.4z"/>
	<path class="st2" d="M160.3,40.4c1-4.4,2.2-9.8,3.6-15.1h-0.2c-2.6,4.7-5.9,9.9-8.7,14.2l-9.2,14.3h-7.9l-1-14.2
		c-0.3-4.4-0.4-9.6-0.2-14.4h-0.1c-1.6,5-3.2,10.6-4.8,15.2l-4.5,14h-9.3l12.5-36.7h13.4L145,30c0.3,4.2,0.4,8.8,0.3,13.1h0.2
		c2.4-4.2,5.2-9.1,7.7-13.2l8-12.2h13.1l-7.2,36.7h-9.9L160.3,40.4L160.3,40.4z"/>
	<path class="st2" d="M184.3,18.2c3.2-0.4,7.7-0.8,13.8-0.8s10.4,1,12.8,3c2.4,1.9,3.5,4.9,2.5,8.5c-0.9,3.6-3.2,6.6-6.4,8.7
		c-4.1,2.7-9.5,3.9-15.5,3.9c-1.3,0-2.5,0-3.4-0.2l-3.5,13.1h-10L184.3,18.2L184.3,18.2z M189.9,34.9c0.8,0.2,1.9,0.2,3.3,0.2
		c5.4,0,9.2-2.2,10.2-6c0.9-3.4-1.4-5.4-6.4-5.4c-2.1,0-3.5,0.2-4.2,0.3L189.9,34.9z"/>
	<path class="st2" d="M243.8,38.9h-16.4l-2.3,8.7h18.3l-1.8,6.8h-28.4l9.7-36.7h27.5l-1.8,6.8h-17.4l-2,7.6h16.4L243.8,38.9
		L243.8,38.9z"/>
	<path class="st2" d="M258,18.2c3.4-0.4,8.3-0.8,13.6-0.8c6.6,0,11,0.8,13.6,2.9c2.2,1.8,3,4.3,2.1,7.7c-1.2,4.7-6.1,7.9-10.2,9
		l0,0.2c2.8,1,3.9,3.5,4.1,6.9c0.3,4.1,0.4,8.9,0.9,10.4h-10.3c-0.4-1.1-0.7-4-0.9-8.6c0-4.6-1.6-5.8-5.6-5.9h-3l-3.8,14.5h-10
		L258,18.2L258,18.2z M263.9,34h4c5,0,8.5-2.1,9.4-5.3c0.9-3.4-1.4-5.1-6.1-5.1c-2.4,0-3.9,0.2-4.6,0.3L263.9,34z"/>
	<path class="st2" d="M310.7,7.5c-0.8,3.2-3.6,5.7-6.9,5.7s-4.6-2.6-3.7-5.7c0.8-3.3,3.6-5.8,6.8-5.8S311.5,4.2,310.7,7.5L310.7,7.5
		z M288,54.5l9.7-36.7h10l-9.7,36.7H288z"/>
	<path class="st2" d="M319.3,45l-5.7,9.4h-10.4l23.3-36.7h13.2l4.1,36.7H333l-1-9.4H319.3L319.3,45z M332.2,38.8l-0.7-7.8
		c-0.2-2.2-0.3-4.9-0.4-7.1H331c-1.2,2.2-2.6,5-3.9,7.1l-4.7,7.8H332.2L332.2,38.8z"/>
	<path class="st2" d="M359.5,17.7h10.1l-7.8,29.8h17.7l-1.8,7h-27.8L359.5,17.7L359.5,17.7z"/>
</g>
<g>
	<path class="st5" d="M98,81.3c1.3,0.8,3.4,1.6,5.4,1.6c2.3,0,3.4-1.1,3.4-2.7s-1-2.4-3.6-3.5c-3.6-1.4-6-3.7-6-7.3
		c0-4.2,3.1-7.5,8.2-7.5c2.4,0,4.2,0.6,5.5,1.3l-1.1,4.5c-0.9-0.5-2.4-1.2-4.6-1.2s-3.2,1.1-3.2,2.4c0,1.6,1.2,2.3,4,3.5
		c3.8,1.6,5.6,3.9,5.6,7.4c0,4.2-2.8,7.8-8.8,7.8c-2.5,0-4.9-0.8-6.2-1.6L98,81.3L98,81.3z"/>
	<path class="st5" d="M119.1,79.9c0.2,2.3,2.2,3.4,4.4,3.4c1.7,0,3-0.3,4.4-0.7l0.6,3.8c-1.6,0.7-3.6,1.2-5.7,1.2
		c-5.3,0-8.4-3.6-8.4-9.2c0-4.6,2.5-9.6,8-9.6c5.1,0,7,4.5,7,9c0,1-0.1,1.8-0.2,2.2L119.1,79.9L119.1,79.9z M124.9,76.1
		c0-1.4-0.5-3.7-2.8-3.7c-2.1,0-2.9,2.2-3,3.7C119.1,76.1,124.9,76.1,124.9,76.1z"/>
	<path class="st5" d="M132.3,75c0-2.7-0.1-4.4-0.1-5.9h4.2l0.2,3.3h0.1c0.8-2.6,2.7-3.7,4.2-3.7c0.4,0,0.7,0,1,0.1v5.3
		c-0.4-0.1-0.8-0.2-1.3-0.2c-1.8,0-3,1.1-3.4,2.8c-0.1,0.4-0.1,0.8-0.1,1.3v9.2h-4.9L132.3,75L132.3,75z"/>
	<path class="st5" d="M148.8,69.1l2.1,8.4c0.4,1.5,0.7,3,0.9,4.4h0.1c0.3-1.5,0.5-2.8,0.9-4.4l2-8.4h5.1l-5.9,18.1h-4.9l-5.7-18.1
		H148.8z"/>
	<path class="st5" d="M167.3,64.1c0,1.6-1,2.8-2.6,2.8s-2.6-1.2-2.6-2.8c0-1.6,1-2.8,2.6-2.8S167.3,62.4,167.3,64.1L167.3,64.1z
		 M162.2,87.2V69.1h4.9v18.1H162.2z"/>
	<path class="st5" d="M182.9,86.7c-0.9,0.4-2.5,0.8-4.4,0.8c-5.1,0-8.4-3.6-8.4-9.3c0-5.3,3.2-9.6,9-9.6c1.3,0,2.7,0.3,3.7,0.7
		l-0.8,4.2c-0.6-0.3-1.4-0.6-2.7-0.6c-2.6,0-4.3,2.1-4.2,5.1c0,3.3,1.9,5.1,4.3,5.1c1.2,0,2.1-0.2,2.8-0.6L182.9,86.7L182.9,86.7z"
		/>
	<path class="st5" d="M189.1,79.9c0.2,2.3,2.2,3.4,4.4,3.4c1.7,0,3-0.3,4.4-0.7l0.6,3.8c-1.6,0.7-3.6,1.2-5.7,1.2
		c-5.4,0-8.4-3.6-8.4-9.2c0-4.6,2.5-9.6,8-9.6c5.1,0,7,4.5,7,9c0,1-0.1,1.8-0.2,2.2L189.1,79.9L189.1,79.9z M194.8,76.1
		c0-1.4-0.5-3.7-2.8-3.7c-2.1,0-2.9,2.2-3,3.7H194.8L194.8,76.1z"/>
	<path class="st5" d="M209.1,81.3c1.3,0.8,3.4,1.6,5.4,1.6c2.3,0,3.4-1.1,3.4-2.7s-1-2.4-3.6-3.5c-3.6-1.4-6-3.7-6-7.3
		c0-4.2,3.1-7.5,8.2-7.5c2.4,0,4.3,0.6,5.6,1.3l-1.1,4.5c-0.9-0.5-2.4-1.2-4.5-1.2s-3.2,1.1-3.2,2.4c0,1.6,1.2,2.3,4,3.5
		c3.8,1.6,5.6,3.9,5.6,7.4c0,4.2-2.8,7.8-8.8,7.8c-2.5,0-4.9-0.8-6.2-1.6L209.1,81.3L209.1,81.3z"/>
	<path class="st5" d="M229.4,69.1l2.4,8.9c0.3,1.1,0.6,2.4,0.8,3.4h0.1c0.2-1,0.5-2.3,0.7-3.4l1.9-8.9h5.2L236.9,81
		c-2.3,7.2-3.8,10-5.6,11.8c-1.7,1.7-3.5,2.3-4.7,2.5l-1-4.8c0.6-0.1,1.4-0.4,2.1-1c0.7-0.4,1.6-1.3,2-2.2c0.2-0.3,0.3-0.6,0.3-0.8
		c0-0.2,0-0.5-0.2-0.9L224,69.1L229.4,69.1L229.4,69.1z"/>
	<path class="st5" d="M242.1,82.2c0.9,0.6,2.8,1.4,4.2,1.4s2.1-0.6,2.1-1.5s-0.5-1.4-2.3-2.1c-3.3-1.3-4.5-3.3-4.5-5.4
		c0-3.4,2.5-5.9,6.4-5.9c1.8,0,3.5,0.5,4.4,1l-0.9,3.9c-0.7-0.4-2.1-1-3.4-1c-1.2,0-1.9,0.6-1.9,1.5c0,0.8,0.6,1.3,2.6,2.1
		c3,1.2,4.3,2.9,4.3,5.6c0,3.4-2.3,5.9-6.8,5.9c-2.1,0-3.9-0.6-5.1-1.3L242.1,82.2L242.1,82.2z"/>
	<path class="st5" d="M261.6,64.2v4.9h3.5v4.1h-3.5v6.5c0,2.2,0.5,3.2,1.9,3.2c0.7,0,1,0,1.5-0.2l0,4.2c-0.6,0.3-1.8,0.5-3.2,0.5
		c-1.6,0-2.9-0.7-3.7-1.6c-0.9-1.1-1.4-2.8-1.4-5.4v-7.4h-2.1v-4.1h2.1v-3.4L261.6,64.2L261.6,64.2z"/>
	<path class="st5" d="M271.5,79.9c0.2,2.3,2.2,3.4,4.5,3.4c1.7,0,3-0.3,4.4-0.7l0.6,3.8c-1.6,0.7-3.6,1.2-5.7,1.2
		c-5.4,0-8.4-3.6-8.4-9.2c0-4.6,2.5-9.6,8-9.6c5.1,0,7,4.5,7,9c0,1-0.1,1.8-0.2,2.2L271.5,79.9L271.5,79.9z M277.3,76.1
		c0-1.4-0.5-3.7-2.8-3.7c-2.1,0-2.9,2.2-3,3.7H277.3z"/>
	<path class="st5" d="M284.8,74.8c0-2.2-0.1-4.2-0.1-5.8h4.1l0.2,2.4h0.1c0.7-1.1,2.1-2.8,4.8-2.8c2,0,3.6,1.2,4.3,3.1h0.1
		c0.6-1,1.3-1.7,2-2.2c0.9-0.6,1.8-0.9,3-0.9c3,0,5.3,2.4,5.3,7.8v10.6h-4.8v-9.8c0-2.6-0.7-4.1-2.3-4.1c-1.1,0-1.9,0.9-2.3,2
		c-0.1,0.4-0.2,1-0.2,1.4v10.6h-4.8V77c0-2.3-0.7-3.8-2.3-3.8c-1.2,0-2,1.1-2.3,2c-0.2,0.4-0.2,1-0.2,1.4v10.5h-4.8V74.8z"/>
	<path class="st5" d="M312.5,82.2c0.9,0.6,2.8,1.4,4.2,1.4s2.1-0.6,2.1-1.5s-0.5-1.4-2.3-2.1c-3.3-1.3-4.5-3.3-4.5-5.4
		c0-3.4,2.5-5.9,6.4-5.9c1.8,0,3.5,0.5,4.5,1l-0.9,3.9c-0.7-0.4-2.1-1-3.4-1c-1.2,0-1.9,0.6-1.9,1.5c0,0.8,0.6,1.3,2.5,2.1
		c3,1.2,4.2,2.9,4.3,5.6c0,3.4-2.3,5.9-6.8,5.9c-2.1,0-3.9-0.6-5.1-1.3C311.6,86.3,312.5,82.2,312.5,82.2z"/>
	<path class="st5" d="M324.3,91.6c1-3.3,1.9-7.1,2.3-10.5l5-0.4c-1.1,3.8-2.5,7.7-4.1,10.5L324.3,91.6z"/>
	<path class="st5" d="M346.2,62.3v24.9h-4.9V62.3C341.2,62.3,346.2,62.3,346.2,62.3z"/>
	<path class="st5" d="M350.4,74.8c0-2.2-0.1-4.2-0.1-5.8h4.2l0.2,2.5h0.1c0.6-1.1,2.2-2.9,4.9-2.9c3.2,0,5.6,2.4,5.6,7.8v10.7h-4.9
		v-10c0-2.3-0.7-3.9-2.5-3.9c-1.4,0-2.2,1.1-2.5,2.1c-0.1,0.4-0.2,0.9-0.2,1.4v10.4h-4.9L350.4,74.8L350.4,74.8z"/>
	<path class="st5" d="M381.1,86.7c-0.9,0.4-2.5,0.8-4.4,0.8c-5.1,0-8.4-3.6-8.4-9.3c0-5.3,3.2-9.6,9-9.6c1.3,0,2.7,0.3,3.7,0.7
		l-0.8,4.2c-0.6-0.3-1.5-0.6-2.7-0.6c-2.6,0-4.3,2.1-4.2,5.1c0,3.3,1.9,5.1,4.3,5.1c1.2,0,2.1-0.2,2.8-0.6L381.1,86.7L381.1,86.7z"
		/>
	<path class="st5" d="M386,87.6c-1.6,0-2.8-1.4-2.8-3.4s1.2-3.4,2.9-3.4s2.9,1.4,2.9,3.4S387.8,87.6,386,87.6L386,87.6z"/>
</g>
<rect x="14.1" class="st6" width="69.8" height="87.2"/>
</svg>
